<svg xmlns:dc="http://purl.org/dc/elements/1.1/" xmlns:cc="http://creativecommons.org/ns#" xmlns:rdf="http://www.w3.org/1999/02/22-rdf-syntax-ns#" xmlns:svg="http://www.w3.org/2000/svg" xmlns="http://www.w3.org/2000/svg" xmlns:sodipodi="http://sodipodi.sourceforge.net/DTD/sodipodi-0.dtd" xmlns:inkscape="http://www.inkscape.org/namespaces/inkscape" version="1.1" x="0px" y="0px" viewBox="0 0 100 125"><g transform="translate(0,-952.36218)"><path d="M 48.187519,957.9572 8.1875186,987.9568 c -0.7389,0.5603 -1.1923,1.4789 -1.1875,2.4062 l 0,53.9992 c 2e-4,1.5708 1.4292,2.9998 3.0000004,3 l 27,0 c 1.5708,-2e-4 2.9998,-1.4292 3,-3 l 0,-20.9991 20,0 0,20.9991 c 2e-4,1.5708 1.4292,2.9998 3,3 l 27,0 c 1.5708,-2e-4 2.9998,-1.4292 3,-3 l 0,-53.9992 c 0,-0.9273 -0.4486,-1.8459 -1.1875,-2.4062 l -40,-29.9996 c -1.3099,-0.8318 -2.4519,-0.754 -3.625,0 z m 1.8125,6.1562 37,27.7496 0,49.4993 -21,0 0,-20.9992 c -2e-4,-1.5707 -1.4292,-2.9998 -3,-2.9999 l -26,0 c -1.5708,10e-5 -2.9998,1.4292 -3,2.9999 l 0,20.9992 -21,0 0,-49.4993 z" style="text-indent:0;text-transform:none;direction:ltr;block-progression:tb;baseline-shift:baseline;color:#000000;enable-background:accumulate;" fill="#000000" fill-opacity="1" stroke="none" marker="none" visibility="visible" display="inline" overflow="visible"/></g><text x="0" y="115" fill="#000000" font-size="5px" font-weight="bold" font-family="'Helvetica Neue', Helvetica, Arial-Unicode, Arial, Sans-serif">Created by Three Six Five</text><text x="0" y="120" fill="#000000" font-size="5px" font-weight="bold" font-family="'Helvetica Neue', Helvetica, Arial-Unicode, Arial, Sans-serif">from the Noun Project</text></svg>